# xmcd CD database file
#
# Track frame offsets:
#	150
#	24813
#	41110
#	62471
#	86569
#	107990
#	125558
#	141149
#	158184
#	177716
#	197006
#	216402
#	240468
#	261011
#	293342
#
# Disc length: 4210 seconds
#
# Revision: 1
# Processed by: cddbd v1.5.1PL2 Copyright (c) Steve Scherf et al.
# Submitted via: Feurio! 1.68 - http://www.feurio.com
#
DISCID=d510700f
DTITLE=HACIENDA - this very moment
DYEAR=1900
DGENRE=
TTITLE0=workin`
TTITLE1=pictures
TTITLE2=agua salgado
TTITLE3=movements
TTITLE4=all around me
TTITLE5=meu coracao
TTITLE6=trapped
TTITLE7=le soleil
TTITLE8=be with me
TTITLE9=hermanos del dub
TTITLE10=siren song
TTITLE11=lighter than a ray
TTITLE12=half a step
TTITLE13=this emptines
TTITLE14=saudades
EXTD=
EXTT0=
EXTT1=
EXTT2=
EXTT3=
EXTT4=
EXTT5=
EXTT6=
EXTT7=
EXTT8=
EXTT9=
EXTT10=
EXTT11=
EXTT12=
EXTT13=
EXTT14=
PLAYORDER=
